<?xml version="1.0" standalone="no"?><svg xmlns="http://www.w3.org/2000/svg" viewBox="0 0 1440 320"><path fill="#FFEAA7" fill-opacity="1" d="M0,192L30,181.3C60,171,120,149,180,165.3C240,181,300,235,360,229.3C420,224,480,160,540,154.7C600,149,660,203,720,218.7C780,235,840,213,900,197.3C960,181,1020,171,1080,186.7C1140,203,1200,245,1260,250.7C1320,256,1380,224,1410,208L1440,192L1440,320L1410,320C1380,320,1320,320,1260,320C1200,320,1140,320,1080,320C1020,320,960,320,900,320C840,320,780,320,720,320C660,320,600,320,540,320C480,320,420,320,360,320C300,320,240,320,180,320C120,320,60,320,30,320L0,320Z"></path></svg>